<svg width="161" height="125" viewBox="0 0 161 125" fill="none" xmlns="http://www.w3.org/2000/svg">
<g clip-path="url(#clip0_57_58)">
<path d="M80.704 109.44C106.385 109.44 127.204 88.6211 127.204 62.9398C127.204 37.2586 106.385 16.4398 80.704 16.4398C55.0228 16.4398 34.204 37.2586 34.204 62.9398C34.204 88.6211 55.0228 109.44 80.704 109.44Z" stroke="#E53F71" stroke-width="2" stroke-linecap="round" stroke-linejoin="round"/>
<path d="M61.329 62.9398C61.329 81.0845 67.7858 97.2917 77.9334 108.224C78.2859 108.607 78.7142 108.914 79.1911 109.123C79.668 109.332 80.1832 109.44 80.704 109.44C81.2249 109.44 81.7401 109.332 82.217 109.123C82.6939 108.914 83.1222 108.607 83.4747 108.224C93.6223 97.2917 100.079 81.0845 100.079 62.9398C100.079 44.7951 93.6223 28.5879 83.4747 17.6556C83.1222 17.2722 82.6939 16.9661 82.217 16.7567C81.7401 16.5473 81.2249 16.4392 80.704 16.4392C80.1832 16.4392 79.668 16.5473 79.1911 16.7567C78.7142 16.9661 78.2859 17.2722 77.9334 17.6556C67.7858 28.5879 61.329 44.7951 61.329 62.9398Z" fill="#D9D9D9"/>
<path d="M61.329 62.9398C61.329 81.0845 67.7858 97.2917 77.9334 108.224C78.2859 108.607 78.7142 108.914 79.1911 109.123C79.668 109.332 80.1832 109.44 80.704 109.44C81.2249 109.44 81.7401 109.332 82.217 109.123C82.6939 108.914 83.1222 108.607 83.4747 108.224C93.6223 97.2917 100.079 81.0845 100.079 62.9398C100.079 44.7951 93.6223 28.5879 83.4747 17.6556C83.1222 17.2722 82.6939 16.9661 82.217 16.7567C81.7401 16.5473 81.2249 16.4392 80.704 16.4392C80.1832 16.4392 79.668 16.5473 79.1911 16.7567C78.7142 16.9661 78.2859 17.2722 77.9334 17.6556C67.7858 28.5879 61.329 44.7951 61.329 62.9398Z" fill="url(#paint0_linear_57_58)"/>
<path d="M61.329 62.9398C61.329 81.0845 67.7858 97.2917 77.9334 108.224C78.2859 108.607 78.7142 108.914 79.1911 109.123C79.668 109.332 80.1832 109.44 80.704 109.44C81.2249 109.44 81.7401 109.332 82.217 109.123C82.6939 108.914 83.1222 108.607 83.4747 108.224C93.6223 97.2917 100.079 81.0845 100.079 62.9398C100.079 44.7951 93.6223 28.5879 83.4747 17.6556C83.1222 17.2722 82.6939 16.9661 82.217 16.7567C81.7401 16.5473 81.2249 16.4392 80.704 16.4392C80.1832 16.4392 79.668 16.5473 79.1911 16.7567C78.7142 16.9661 78.2859 17.2722 77.9334 17.6556C67.7858 28.5879 61.329 44.7951 61.329 62.9398Z" stroke="#E53F71" stroke-width="2" stroke-linecap="round" stroke-linejoin="round"/>
<path d="M36.8487 47.4398H124.559" stroke="#E53F71" stroke-width="2" stroke-linecap="round" stroke-linejoin="round"/>
<path d="M36.8487 78.4398H124.559" stroke="#E53F71" stroke-width="2" stroke-linecap="round" stroke-linejoin="round"/>
</g>
<path d="M18.704 50.2927L1.49487 64.6337L18.704 78.9746" stroke="#E53F71" stroke-width="2" stroke-linecap="round" stroke-linejoin="round"/>
<path d="M142.704 50.2927L159.913 64.6337L142.704 78.9746" stroke="#E53F71" stroke-width="2" stroke-linecap="round" stroke-linejoin="round"/>
<defs>
<linearGradient id="paint0_linear_57_58" x1="80.704" y1="16.4392" x2="80.704" y2="109.44" gradientUnits="userSpaceOnUse">
<stop stop-color="#E53F71"/>
<stop offset="1" stop-color="#FAD9E3"/>
</linearGradient>
<clipPath id="clip0_57_58">
<rect width="124" height="124" fill="white" transform="translate(18.704 0.939819)"/>
</clipPath>
</defs>
</svg>
