<svg xmlns="http://www.w3.org/2000/svg" width="48" height="49" viewBox="0 0 48 49" fill="none">
<path d="M13.3079 24.4202L11.0382 22.2539C9.69141 20.8595 8.94621 18.992 8.96305 17.0535C8.9799 15.115 9.75744 13.2606 11.1282 11.8899C12.499 10.5191 14.3533 9.74155 16.2918 9.72471C18.2303 9.70786 20.0979 10.4531 21.4923 11.7998L23.6585 14.0696" stroke="#E53F71" stroke-width="2.78336" stroke-linecap="round" stroke-linejoin="round"/>
<path d="M34.0091 24.4203L36.2789 26.5865C37.6256 27.9809 38.3708 29.8484 38.354 31.7869C38.3371 33.7254 37.5596 35.5798 36.1888 36.9505C34.818 38.3213 32.9637 39.0989 31.0252 39.1157C29.0867 39.1326 27.2191 38.3874 25.8247 37.0406L23.6585 34.7709" stroke="#E53F71" stroke-width="2.78336" stroke-linecap="round" stroke-linejoin="round"/>
<path d="M13.3079 30.3349H8.87195" stroke="#E53F71" stroke-width="2.78336" stroke-linecap="round" stroke-linejoin="round"/>
<path d="M38.4451 18.5056H34.0092" stroke="#E53F71" stroke-width="2.78336" stroke-linecap="round" stroke-linejoin="round"/>
<path d="M17.7439 34.7709V39.2068" stroke="#E53F71" stroke-width="2.78336" stroke-linecap="round" stroke-linejoin="round"/>
<path d="M29.5732 9.63367V14.0696" stroke="#E53F71" stroke-width="2.78336" stroke-linecap="round" stroke-linejoin="round"/>
<path d="M18.3321 18.7996L29.5732 30.0407" stroke="#E53F71" stroke-width="2.78336" stroke-linecap="round" stroke-linejoin="round"/>
</svg>