<?xml version="1.0" standalone="no"?>
<!DOCTYPE svg PUBLIC "-//W3C//DTD SVG 20010904//EN"
 "http://www.w3.org/TR/2001/REC-SVG-20010904/DTD/svg10.dtd">
<svg version="1.0" xmlns="http://www.w3.org/2000/svg"
 width="784.000000pt" height="784.000000pt" viewBox="0 0 784.000000 784.000000"
 preserveAspectRatio="xMidYMid meet">
<metadata>
Created by potrace 1.14, written by Peter Selinger 2001-2017
</metadata>
<g transform="translate(0.000000,784.000000) scale(0.100000,-0.100000)"
fill="#000000" stroke="none">
<path d="M4724 6501 c-53 -24 -92 -64 -116 -118 -17 -39 -19 -71 -19 -432 0
-275 3 -402 12 -430 47 -158 256 -205 373 -83 59 63 62 88 61 519 -1 388 -1
392 -24 437 -29 56 -64 88 -119 110 -55 21 -117 20 -168 -3z"/>
<path d="M2587 6503 c-2 -2 -32 -5 -66 -8 -35 -3 -67 -8 -72 -11 -5 -3 -22 -7
-38 -9 -145 -19 -389 -126 -541 -238 -94 -70 -195 -166 -260 -247 -25 -30 -47
-57 -50 -60 -12 -11 -90 -140 -90 -149 0 -5 -6 -16 -13 -23 -42 -44 -132 -313
-153 -458 -9 -59 -11 -343 -3 -375 4 -16 10 -48 14 -70 3 -22 8 -51 10 -65 8
-49 65 -210 99 -282 36 -74 87 -169 96 -178 3 -3 30 -39 61 -80 61 -81 111
-133 325 -337 176 -166 195 -183 216 -183 9 0 19 -4 23 -10 9 -15 127 -5 165
14 104 54 151 186 102 288 -26 53 -19 46 -212 228 -208 196 -282 275 -303 323
-6 15 -15 27 -18 27 -12 0 -88 177 -108 250 -130 493 134 990 618 1160 35 12
77 24 95 27 17 2 46 8 65 13 32 9 290 6 321 -3 8 -2 29 -7 45 -11 197 -49 336
-132 499 -299 60 -62 158 -163 218 -225 125 -129 146 -141 238 -144 119 -3
223 109 216 232 -4 62 -25 106 -81 165 -269 283 -370 385 -425 428 -36 28 -67
54 -70 57 -7 7 -42 29 -60 37 -8 4 -17 10 -20 14 -7 10 -185 98 -230 114 -46
16 -95 31 -150 45 -79 21 -112 28 -169 36 -51 7 -289 13 -294 7z"/>
<path d="M5505 5099 c-68 -9 -104 -26 -146 -72 -96 -102 -66 -287 56 -342 61
-28 108 -31 476 -29 413 2 426 3 490 61 66 60 89 154 57 238 -30 77 -86 127
-158 140 -46 9 -711 12 -775 4z"/>
<path d="M2944 5041 c-91 -30 -142 -97 -151 -195 -10 -103 -46 -62 965 -1074
862 -861 934 -931 981 -947 89 -29 176 -7 239 63 60 67 74 178 30 253 -7 12
-430 440 -940 951 -618 618 -940 933 -963 942 -55 23 -107 26 -161 7z"/>
<path d="M5457 4145 c-108 -37 -166 -130 -153 -243 7 -57 28 -96 80 -146 17
-17 107 -102 199 -190 93 -89 191 -190 218 -226 86 -113 157 -279 180 -420 11
-68 14 -248 4 -290 -3 -14 -8 -38 -10 -55 -8 -53 -63 -213 -81 -236 -6 -8 -14
-22 -17 -32 -31 -86 -218 -285 -333 -355 -61 -36 -233 -116 -242 -112 -1 1
-35 -6 -75 -14 -87 -19 -228 -26 -300 -15 -29 5 -68 11 -87 14 -86 13 -254 82
-334 137 -43 29 -137 109 -169 142 -209 222 -344 358 -370 372 -39 20 -126 25
-175 11 -53 -15 -126 -93 -140 -148 -15 -59 -6 -125 23 -174 13 -22 65 -83
116 -135 336 -346 322 -333 426 -408 369 -269 868 -336 1303 -175 491 181 848
631 908 1143 12 97 6 364 -8 400 -1 3 -2 9 -1 14 2 12 -36 158 -61 229 -42
123 -175 367 -199 367 -5 0 -9 7 -9 15 0 29 -466 482 -528 514 -50 25 -118 32
-165 16z"/>
<path d="M1423 3196 c-71 -25 -138 -113 -146 -192 -4 -48 19 -121 53 -160 27
-32 80 -69 80 -57 0 5 5 1 10 -7 8 -13 65 -15 407 -16 444 -1 473 2 529 57 79
76 97 179 48 269 -25 47 -84 99 -118 104 -8 1 -19 5 -23 9 -12 13 -804 6 -840
-7z"/>
<path d="M2868 2494 c-4 -3 -12 -7 -20 -8 -25 -4 -63 -29 -91 -60 -59 -65 -59
-65 -61 -496 -1 -369 0 -398 18 -443 42 -106 149 -160 261 -133 11 2 25 5 31
5 6 1 32 19 56 41 80 70 80 70 80 520 0 275 -4 404 -12 425 -35 92 -104 145
-199 151 -32 2 -60 1 -63 -2z"/>
</g>
</svg>
